<svg width="213" height="556" viewBox="0 0 213 556" fill="none" xmlns="http://www.w3.org/2000/svg">
<path d="M176.141 324.325L-166.262 536.794C-173.833 541.507 -182.425 543.992 -191.174 544C-199.923 544.008 -208.519 541.538 -216.097 536.838C-223.675 532.139 -229.966 525.376 -234.338 517.231C-238.71 509.086 -241.008 499.847 -241 490.444V65.5261C-241 56.1321 -238.7 46.9036 -234.33 38.7678C-229.961 30.6319 -223.676 23.8753 -216.108 19.1767C-208.539 14.478 -199.953 12.0029 -191.213 12C-182.473 11.9971 -173.885 14.4665 -166.314 19.1601L176.141 231.666C183.701 236.367 189.977 243.123 194.34 251.254C198.703 259.386 201 268.608 201 277.995C201 287.381 198.703 296.603 194.34 304.735C189.977 312.866 183.701 319.622 176.141 324.323V324.325Z" stroke="#FAE9B7" stroke-width="23" stroke-linecap="round" stroke-linejoin="round"/>
</svg>
