<svg width="477" height="464" viewBox="0 0 477 464" fill="none" xmlns="http://www.w3.org/2000/svg">
<path d="M196.848 101.18L431.073 236.092C436.26 239.07 440.567 243.362 443.561 248.537C446.554 253.711 448.127 259.585 448.123 265.566C448.118 271.547 446.536 277.425 443.534 282.607C440.533 287.789 436.22 292.092 431.028 295.083L196.538 430.466C191.354 433.459 185.476 435.038 179.493 435.045C173.511 435.051 167.635 433.485 162.456 430.504C157.278 427.522 152.979 423.231 149.991 418.06C147.004 412.889 145.433 407.021 145.436 401.045L145.714 130.702C145.726 124.731 147.31 118.865 150.307 113.692C153.304 108.52 157.608 104.222 162.788 101.232C167.968 98.241 173.842 96.6619 179.82 96.6528C185.798 96.6438 191.67 98.2052 196.847 101.18L196.848 101.18Z" stroke="#F4D2C9" stroke-width="23" stroke-linecap="round" stroke-linejoin="round"/>
</svg>
