<svg width="372" height="615" viewBox="0 0 372 615" fill="none" xmlns="http://www.w3.org/2000/svg">
<path d="M372.642 484.535L56.1792 302.032C49.1708 298.003 43.3502 292.199 39.3037 285.203C35.2571 278.208 33.1276 270.269 33.1295 262.185C33.1315 254.101 35.2648 246.159 39.3147 239.157C43.3646 232.156 49.188 226.343 56.1984 222.304L372.826 39.4987C379.826 35.4574 387.765 33.3274 395.846 33.3226C403.926 33.3178 411.864 35.4385 418.86 39.4716C425.857 43.5047 431.667 49.3082 435.706 56.2989C439.745 63.2896 441.871 71.2213 441.87 79.2973L441.688 444.672C441.676 452.742 439.54 460.669 435.496 467.657C431.452 474.646 425.641 480.451 418.647 484.489C411.652 488.527 403.72 490.657 395.645 490.665C387.571 490.673 379.638 488.559 372.644 484.534L372.642 484.535Z" stroke="#CACBEB" stroke-width="23" stroke-linecap="round" stroke-linejoin="round"/>
</svg>
