<svg width="440" height="570" viewBox="0 0 440 570" fill="none" xmlns="http://www.w3.org/2000/svg">
<path d="M39.3895 332.545L416.653 550.604C424.994 555.441 434.462 557.992 444.101 558C453.741 558.008 463.212 555.473 471.561 550.65C479.911 545.826 486.843 538.886 491.66 530.527C496.477 522.167 499.009 512.685 499 503.035V66.9346C499 57.2935 496.465 47.8222 491.651 39.4722C486.837 31.1223 479.912 24.1878 471.573 19.3655C463.234 14.5432 453.774 12.003 444.144 12C434.514 11.997 425.053 14.5314 416.711 19.3485L39.3895 237.446C31.0605 242.272 24.1454 249.205 19.338 257.55C14.5306 265.896 12 275.36 12 284.994C12 294.628 14.5306 304.093 19.338 312.438C24.1454 320.784 31.0605 327.717 39.3895 332.542V332.545Z" stroke="#F4D2C9" stroke-width="23" stroke-linecap="round" stroke-linejoin="round"/>
</svg>
