<svg width="600" height="670" viewBox="0 0 600 670" fill="none" xmlns="http://www.w3.org/2000/svg">
<path d="M44.3949 391.252L490.604 649.249C500.47 654.972 511.667 657.99 523.068 658C534.47 658.009 545.672 655.01 555.547 649.303C565.422 643.597 573.621 635.385 579.319 625.495C585.016 615.605 588.01 604.386 588 592.968V76.9959C588 65.589 585.002 54.383 579.308 44.5037C573.614 34.6245 565.424 26.42 555.561 20.7145C545.698 15.009 534.509 12.0035 523.119 12C511.729 11.9965 500.539 14.995 490.672 20.6944L44.3949 278.737C34.5438 284.446 26.365 292.649 20.6791 302.523C14.9931 312.397 12 323.595 12 334.993C12 346.392 14.9931 357.59 20.6791 367.464C26.365 377.338 34.5438 385.541 44.3949 391.25V391.252Z" stroke="#FAE9B7" stroke-width="23" stroke-linecap="round" stroke-linejoin="round"/>
</svg>
