<svg width="71" height="80" viewBox="0 0 71 80" fill="none" xmlns="http://www.w3.org/2000/svg">
<path d="M65.5667 33.5577L13.8781 3.54664C12.7353 2.88095 11.4383 2.52986 10.1176 2.52875C8.79691 2.52763 7.49926 2.87653 6.35534 3.54029C5.21142 4.20405 4.26161 5.15923 3.60161 6.30963C2.9416 7.46004 2.5947 8.76503 2.59584 10.0932V70.1128C2.59583 71.4397 2.94308 72.7432 3.60269 73.8924C4.26229 75.0416 5.21102 75.996 6.35355 76.6597C7.49609 77.3233 8.79219 77.6729 10.1116 77.6733C11.4311 77.6737 12.7274 77.3249 13.8703 76.6619L65.5667 46.6456C66.7079 45.9815 67.6553 45.0273 68.314 43.8787C68.9726 42.7301 69.3193 41.4276 69.3193 40.1017C69.3193 38.7758 68.9726 37.4732 68.314 36.3246C67.6553 35.176 66.7079 34.2218 65.5667 33.5577Z" stroke="#F4D2C9" stroke-width="3.31412" stroke-linecap="round" stroke-linejoin="round"/>
</svg>
