<svg width="71" height="80" viewBox="0 0 71 80" fill="none" xmlns="http://www.w3.org/2000/svg">
<path d="M5.43327 46.4423L57.1219 76.4534C58.2647 77.119 59.5617 77.4701 60.8824 77.4713C62.2031 77.4724 63.5007 77.1235 64.6447 76.4597C65.7886 75.796 66.7384 74.8408 67.3984 73.6904C68.0584 72.54 68.4053 71.235 68.4042 69.9068V9.88724C68.4042 8.56033 68.0569 7.2568 67.3973 6.10761C66.7377 4.95841 65.789 4.00403 64.6464 3.34034C63.5039 2.67666 62.2078 2.32706 60.8884 2.32666C59.5689 2.32626 58.2726 2.67508 57.1297 3.33807L5.43327 33.3544C4.29212 34.0185 3.34469 34.9727 2.68604 36.1213C2.02738 37.2699 1.68066 38.5724 1.68066 39.8983C1.68066 41.2242 2.02738 42.5268 2.68604 43.6754C3.34469 44.824 4.29212 45.7782 5.43327 46.4423Z" stroke="#FAE9B7" stroke-width="3.31412" stroke-linecap="round" stroke-linejoin="round"/>
</svg>
