<svg width="47" height="52" viewBox="0 0 47 52" fill="none" xmlns="http://www.w3.org/2000/svg">
<path d="M4.62815 29.7362L37.4656 48.8341C38.1916 49.2578 39.0156 49.4812 39.8547 49.4819C40.6937 49.4826 41.5181 49.2606 42.2448 48.8382C42.9715 48.4158 43.5749 47.8079 43.9942 47.0759C44.4135 46.3438 44.6339 45.5133 44.6332 44.6682V6.47387C44.6332 5.62948 44.4126 4.79996 43.9935 4.06865C43.5745 3.33735 42.9718 2.73001 42.2459 2.30767C41.5201 1.88533 40.6967 1.66285 39.8584 1.6626C39.0202 1.66234 38.1967 1.88432 37.4706 2.30622L4.62815 21.4075C3.90318 21.8301 3.30129 22.4374 2.88285 23.1683C2.46441 23.8992 2.24414 24.7281 2.24414 25.5719C2.24414 26.4156 2.46441 27.2445 2.88285 27.9754C3.30129 28.7063 3.90318 29.3136 4.62815 29.7362Z" stroke="#F4D2C9" stroke-width="3.31412" stroke-linecap="round" stroke-linejoin="round"/>
</svg>
