<svg width="56" height="62" viewBox="0 0 56 62" fill="none" xmlns="http://www.w3.org/2000/svg">
<path d="M50.8987 26.2491L10.7641 3.05865C9.8767 2.54425 8.86956 2.27296 7.84409 2.27209C6.81863 2.27123 5.81104 2.54083 4.92282 3.05374C4.0346 3.56664 3.2971 4.30474 2.78463 5.19368C2.27216 6.08263 2.0028 7.09104 2.00368 8.11733L2.00367 54.4961C2.00367 55.5214 2.2733 56.5287 2.78546 57.4167C3.29762 58.3048 4.03428 59.0422 4.92143 59.5551C5.80857 60.0679 6.81496 60.3381 7.83946 60.3384C8.86397 60.3387 9.87051 60.0691 10.758 59.5568L50.8987 36.3624C51.7848 35.8492 52.5204 35.1119 53.0319 34.2243C53.5433 33.3368 53.8125 32.3303 53.8125 31.3057C53.8125 30.2812 53.5433 29.2746 53.0319 28.3871C52.5204 27.4995 51.7848 26.7622 50.8987 26.2491Z" stroke="#F4D2C9" stroke-width="3.31412" stroke-linecap="round" stroke-linejoin="round"/>
</svg>
